<?xml version="1.0" encoding="UTF-8" standalone="no"?>
<!DOCTYPE svg PUBLIC "-//W3C//DTD SVG 1.1//EN" "http://www.w3.org/Graphics/SVG/1.1/DTD/svg11.dtd">
<!-- Created with Vectornator (http://vectornator.io/) -->
<svg height="100%" stroke-miterlimit="10" style="fill-rule:nonzero;clip-rule:evenodd;stroke-linecap:round;stroke-linejoin:round;" version="1.1" viewBox="0 0 2500 2500" width="100%" xml:space="preserve" xmlns="http://www.w3.org/2000/svg" xmlns:vectornator="http://vectornator.io" xmlns:xlink="http://www.w3.org/1999/xlink">
<defs/>
<g id="Layer-1" vectornator:layerName="Layer 1">
<path d="M1706.76 23.2346L2484.44 472.228C2494.57 478.074 2498 491.094 2492.15 501.216C2281.73 865.681 1814.16 993.206 1449.7 782.782L812.191 414.722C799.234 407.239 808.384 384.547 823.074 387.402C1294.1 478.888 1541.8 210.483 1679.18 28.8287C1685.66 20.2615 1697.46 17.8639 1706.76 23.2346Z" fill="#00d060" fill-rule="nonzero" opacity="1" stroke="none" vectornator:layerName="path"/>
<path d="M1738.8 2027.81L961.122 2476.8C951 2482.64 938.011 2479.1 932.165 2468.98C721.745 2104.52 845.086 1635.83 1209.55 1425.4L1847.05 1057.34C1860.01 1049.86 1875.09 1069.13 1865.27 1080.43C1550.53 1442.61 1659.13 1791.32 1747.75 2001.12C1751.93 2011.02 1748.11 2022.43 1738.8 2027.81Z" fill="#0c3146" fill-rule="nonzero" opacity="1" stroke="none" vectornator:layerName="path"/>
<path d="M5 1048.97L5 121.405C5 109.715 14.4766 100.238 26.1667 100.238L47.3337 100.238C468.18 100.238 809.342 441.4 809.342 862.247L809.342 1647.97C809.342 1662.95 785.123 1666.29 780.309 1652.1C620.721 1181.93 255.128 1099.08 23.6057 1070.05C12.9555 1068.72 5 1059.7 5 1048.97Z" fill="#0c3146" fill-rule="nonzero" opacity="1" stroke="none" vectornator:layerName="path"/>
</g>
</svg>
