<?xml version="1.0" encoding="UTF-8" standalone="no"?>
<!DOCTYPE svg PUBLIC "-//W3C//DTD SVG 1.1//EN" "http://www.w3.org/Graphics/SVG/1.1/DTD/svg11.dtd">
<!-- Created with Vectornator (http://vectornator.io/) -->
<svg height="100%" stroke-miterlimit="10" style="fill-rule:nonzero;clip-rule:evenodd;stroke-linecap:round;stroke-linejoin:round;" version="1.1" viewBox="0 0 3030 430" width="100%" xml:space="preserve" xmlns="http://www.w3.org/2000/svg" xmlns:vectornator="http://vectornator.io" xmlns:xlink="http://www.w3.org/1999/xlink">
<defs/>
<g id="Layer-1" vectornator:layerName="Layer 1">
<path d="M520.74 92.5L520.74 137.313L603.334 137.313L603.334 337.5L654.084 337.5L654.084 137.313L887.959 137.313C891.459 137.312 894.738 136.256 897.771 134.156C900.805 132.056 902.917 129.36 904.084 126.094L917.365 92.5L520.74 92.5ZM711.49 193.656L711.49 236.344L840.99 236.344C844.49 236.344 847.698 235.319 850.615 233.219C853.532 231.119 855.684 228.423 857.084 225.156L869.709 193.656L711.49 193.656ZM711.49 293.75L711.49 337.5L888.959 337.5C892.692 337.5 896.05 336.444 899.084 334.344C902.117 332.244 904.23 329.469 905.396 325.969L917.302 293.75L711.49 293.75Z" fill="#ffffff" fill-rule="nonzero" opacity="1" stroke="none" vectornator:layerName="Curve 1"/>
<path d="M1057.64 341.175C1039.91 341.175 1023.11 338.083 1007.24 331.9C991.378 325.717 977.494 317.025 965.594 305.825C953.694 294.625 944.303 281.325 937.419 265.925C930.536 250.525 927.094 233.725 927.094 215.525C927.094 197.325 930.536 180.467 937.419 164.95C944.303 149.433 953.694 136.017 965.594 124.7C977.494 113.383 991.378 104.575 1007.24 98.275C1023.11 91.975 1039.91 88.825 1057.64 88.825C1076.78 88.825 1095.33 92.7333 1113.29 100.55C1131.26 108.367 1146.54 119.625 1159.14 134.325C1157.04 135.725 1154.3 137.708 1150.92 140.275C1147.54 142.842 1144.04 145.35 1140.42 147.8C1136.8 150.25 1133.24 152.408 1129.74 154.275C1126.24 156.142 1123.21 157.075 1120.64 157.075C1118.08 157.075 1114.99 155.967 1111.37 153.75C1107.75 151.533 1103.38 149.025 1098.24 146.225C1093.11 143.425 1087.22 140.917 1080.57 138.7C1073.92 136.483 1066.28 135.375 1057.64 135.375C1046.44 135.375 1036.06 137.475 1026.49 141.675C1016.93 145.875 1008.64 151.533 1001.64 158.65C994.644 165.767 989.161 174.225 985.194 184.025C981.228 193.825 979.244 204.325 979.244 215.525C979.244 226.725 981.286 237.167 985.369 246.85C989.453 256.533 995.111 264.875 1002.34 271.875C1009.58 278.875 1018.04 284.417 1027.72 288.5C1037.4 292.583 1047.84 294.625 1059.04 294.625C1067.44 294.625 1074.91 293.575 1081.44 291.475C1087.98 289.375 1093.69 286.983 1098.59 284.3C1103.49 281.617 1107.75 279.225 1111.37 277.125C1114.99 275.025 1118.08 273.975 1120.64 273.975C1123.21 273.975 1126.19 274.85 1129.57 276.6C1132.95 278.35 1136.39 280.45 1139.89 282.9C1143.39 285.35 1146.78 287.858 1150.04 290.425C1153.31 292.992 1155.99 294.975 1158.09 296.375C1152.03 303.375 1145.14 309.675 1137.44 315.275C1129.74 320.875 1121.52 325.6 1112.77 329.45C1104.02 333.3 1094.98 336.217 1085.64 338.2C1076.31 340.183 1066.98 341.175 1057.64 341.175Z" fill="#ffffff" fill-rule="nonzero" opacity="1" stroke="none" vectornator:layerName="Curve 2"/>
<path d="M1681.28 337.5L1636.13 337.5C1632.87 337.5 1629.78 336.683 1626.86 335.05C1623.94 333.417 1621.78 331.083 1620.38 328.05L1581.88 253.15C1580.48 250.117 1578.33 247.783 1575.41 246.15C1572.49 244.517 1569.4 243.7 1566.13 243.7L1521.33 243.7L1521.33 337.5L1470.58 337.5L1470.58 202.05L1586.08 202.05C1591.22 202.05 1596.06 201.35 1600.61 199.95C1605.16 198.55 1609.18 196.45 1612.68 193.65C1616.18 190.85 1618.98 187.408 1621.08 183.325C1623.18 179.242 1624.23 174.517 1624.23 169.15C1624.23 163.783 1623.18 159.058 1621.08 154.975C1618.98 150.892 1616.18 147.45 1612.68 144.65C1609.18 141.85 1605.16 139.75 1600.61 138.35C1596.06 136.95 1591.22 136.25 1586.08 136.25L1488.08 136.25C1483.42 136.25 1479.33 134.5 1475.83 131C1472.33 127.5 1470.58 123.417 1470.58 118.75L1470.58 92.5L1590.63 92.5C1602.07 92.5 1612.92 94.1917 1623.18 97.575C1633.45 100.958 1642.43 105.858 1650.13 112.275C1657.83 118.692 1663.9 126.625 1668.33 136.075C1672.77 145.525 1674.98 156.317 1674.98 168.45C1674.98 184.083 1670.61 197.85 1661.86 209.75C1653.11 221.65 1641.73 230.633 1627.73 236.7L1681.28 337.5Z" fill="#ffffff" fill-rule="nonzero" opacity="1" stroke="none" vectornator:layerName="Curve 3"/>
<path d="M1766.76 134.5L1766.76 337.5L1716.01 337.5L1716.01 92.5L1830.81 92.5C1841.31 92.5 1851.52 93.8417 1861.44 96.525C1871.35 99.2083 1880.22 103.292 1888.04 108.775C1895.85 114.258 1902.15 121.2 1906.94 129.6C1911.72 138 1914.11 148.033 1914.11 159.7C1914.11 170.9 1911.43 180.817 1906.06 189.45C1900.7 198.083 1893.46 205.317 1884.36 211.15C1895.33 216.517 1904.43 223.925 1911.66 233.375C1918.9 242.825 1922.51 253.85 1922.51 266.45C1922.51 278.583 1920.12 289.142 1915.34 298.125C1910.55 307.108 1904.14 314.517 1896.09 320.35C1888.04 326.183 1878.88 330.5 1868.61 333.3C1858.35 336.1 1847.61 337.5 1836.41 337.5L1784.26 337.5L1796.16 306.7C1797.33 303.433 1799.43 300.75 1802.46 298.65C1805.5 296.55 1808.76 295.5 1812.26 295.5C1818.33 295.5 1824.8 295.442 1831.69 295.325C1838.57 295.208 1844.99 294.217 1850.94 292.35C1856.89 290.483 1861.85 287.333 1865.81 282.9C1869.78 278.467 1871.76 272.05 1871.76 263.65C1871.76 258.283 1870.65 253.617 1868.44 249.65C1866.22 245.683 1863.25 242.417 1859.51 239.85C1855.78 237.283 1851.58 235.358 1846.91 234.075C1842.25 232.792 1837.46 232.15 1832.56 232.15L1784.96 232.15L1795.46 203.8C1796.63 200.533 1798.79 197.85 1801.94 195.75C1805.09 193.65 1808.41 192.6 1811.91 192.6C1817.28 192.6 1822.94 192.483 1828.89 192.25C1834.84 192.017 1840.38 191.025 1845.51 189.275C1850.65 187.525 1854.9 184.667 1858.29 180.7C1861.67 176.733 1863.36 171.017 1863.36 163.55C1863.36 158.417 1862.37 153.983 1860.39 150.25C1858.4 146.517 1855.72 143.483 1852.34 141.15C1848.95 138.817 1845.16 137.125 1840.96 136.075C1836.76 135.025 1832.33 134.5 1827.66 134.5L1766.76 134.5Z" fill="#ffffff" fill-rule="nonzero" opacity="1" stroke="none" vectornator:layerName="Curve 4"/>
<path d="M2015.96 337.5L1965.21 337.5L1965.21 92.5L1998.46 92.5C2003.13 92.5 2007.21 94.25 2010.71 97.75C2014.21 101.25 2015.96 105.333 2015.96 110L2015.96 337.5Z" fill="#ffffff" fill-rule="nonzero" opacity="1" stroke="none" vectornator:layerName="Curve 5"/>
<path d="M2166.8 337.5L2116.05 337.5L2116.05 137.3L2050.41 137.3L2050.41 92.5L2232.46 92.5L2219.16 126.1C2217.99 129.367 2215.89 132.05 2212.86 134.15C2209.83 136.25 2206.56 137.3 2203.06 137.3L2166.8 137.3L2166.8 337.5Z" fill="#ffffff" fill-rule="nonzero" opacity="1" stroke="none" vectornator:layerName="Curve 6"/>
<path d="M2477.6 337.5L2432.45 337.5C2429.18 337.5 2426.09 336.683 2423.17 335.05C2420.25 333.417 2418.1 331.083 2416.7 328.05L2378.2 253.15C2376.8 250.117 2374.64 247.783 2371.72 246.15C2368.8 244.517 2365.71 243.7 2362.45 243.7L2317.65 243.7L2317.65 337.5L2266.9 337.5L2266.9 202.05L2382.4 202.05C2387.53 202.05 2392.37 201.35 2396.92 199.95C2401.47 198.55 2405.5 196.45 2409 193.65C2412.5 190.85 2415.3 187.408 2417.4 183.325C2419.5 179.242 2420.55 174.517 2420.55 169.15C2420.55 163.783 2419.5 159.058 2417.4 154.975C2415.3 150.892 2412.5 147.45 2409 144.65C2405.5 141.85 2401.47 139.75 2396.92 138.35C2392.37 136.95 2387.53 136.25 2382.4 136.25L2284.4 136.25C2279.73 136.25 2275.65 134.5 2272.15 131C2268.65 127.5 2266.9 123.417 2266.9 118.75L2266.9 92.5L2386.95 92.5C2398.38 92.5 2409.23 94.1917 2419.5 97.575C2429.76 100.958 2438.75 105.858 2446.45 112.275C2454.15 118.692 2460.21 126.625 2464.65 136.075C2469.08 145.525 2471.3 156.317 2471.3 168.45C2471.3 184.083 2466.92 197.85 2458.17 209.75C2449.42 221.65 2438.05 230.633 2424.05 236.7L2477.6 337.5Z" fill="#ffffff" fill-rule="nonzero" opacity="1" stroke="none" vectornator:layerName="Curve 7"/>
<path d="M1306.01 341.35C1288.27 341.35 1271.53 338.142 1255.78 331.725C1240.03 325.308 1226.32 316.442 1214.66 305.125C1202.99 293.808 1193.72 280.45 1186.83 265.05C1179.95 249.65 1176.51 232.967 1176.51 215C1176.51 197.033 1179.95 180.35 1186.83 164.95C1193.72 149.55 1202.99 136.192 1214.66 124.875C1226.32 113.558 1240.03 104.692 1255.78 98.275C1271.53 91.8583 1288.27 88.65 1306.01 88.65C1323.74 88.65 1340.48 91.8583 1356.23 98.275C1371.98 104.692 1385.75 113.558 1397.53 124.875C1409.32 136.192 1418.65 149.55 1425.53 164.95C1432.42 180.35 1435.86 197.033 1435.86 215C1435.86 232.967 1432.42 249.65 1425.53 265.05C1418.65 280.45 1409.32 293.808 1397.53 305.125C1385.75 316.442 1371.98 325.308 1356.23 331.725C1340.48 338.142 1323.74 341.35 1306.01 341.35ZM1306.01 294.8C1317.44 294.8 1327.88 292.758 1337.33 288.675C1346.78 284.592 1354.95 278.933 1361.83 271.7C1368.72 264.467 1374.08 256.008 1377.93 246.325C1381.78 236.642 1383.71 226.2 1383.71 215C1383.71 203.8 1381.78 193.358 1377.93 183.675C1374.08 173.992 1368.72 165.533 1361.83 158.3C1354.95 151.067 1346.78 145.408 1337.33 141.325C1327.88 137.242 1317.44 135.2 1306.01 135.2C1294.81 135.2 1284.42 137.3 1274.86 141.5C1265.29 145.7 1257.12 151.358 1250.36 158.475C1243.59 165.592 1238.28 173.992 1234.43 183.675C1230.58 193.358 1228.66 203.8 1228.66 215C1228.66 226.2 1230.58 236.642 1234.43 246.325C1238.28 256.008 1243.59 264.408 1250.36 271.525C1257.12 278.642 1265.29 284.3 1274.86 288.5C1284.42 292.7 1294.81 294.8 1306.01 294.8Z" fill="#00d060" fill-rule="nonzero" opacity="1" stroke="none" vectornator:layerName="Curve 8"/>
<path d="M2628.45 341.35C2610.71 341.35 2593.97 338.142 2578.22 331.725C2562.47 325.308 2548.76 316.442 2537.1 305.125C2525.43 293.808 2516.15 280.45 2509.27 265.05C2502.39 249.65 2498.95 232.967 2498.95 215C2498.95 197.033 2502.39 180.35 2509.27 164.95C2516.15 149.55 2525.43 136.192 2537.1 124.875C2548.76 113.558 2562.47 104.692 2578.22 98.275C2593.97 91.8583 2610.71 88.65 2628.45 88.65C2646.18 88.65 2662.92 91.8583 2678.67 98.275C2694.42 104.692 2708.19 113.558 2719.97 124.875C2731.75 136.192 2741.09 149.55 2747.97 164.95C2754.85 180.35 2758.3 197.033 2758.3 215C2758.3 232.967 2754.85 249.65 2747.97 265.05C2741.09 280.45 2731.75 293.808 2719.97 305.125C2708.19 316.442 2694.42 325.308 2678.67 331.725C2662.92 338.142 2646.18 341.35 2628.45 341.35ZM2628.45 294.8C2639.88 294.8 2650.32 292.758 2659.77 288.675C2669.22 284.592 2677.39 278.933 2684.27 271.7C2691.15 264.467 2696.52 256.008 2700.37 246.325C2704.22 236.642 2706.15 226.2 2706.15 215C2706.15 203.8 2704.22 193.358 2700.37 183.675C2696.52 173.992 2691.15 165.533 2684.27 158.3C2677.39 151.067 2669.22 145.408 2659.77 141.325C2650.32 137.242 2639.88 135.2 2628.45 135.2C2617.25 135.2 2606.86 137.3 2597.3 141.5C2587.73 145.7 2579.56 151.358 2572.8 158.475C2566.03 165.592 2560.72 173.992 2556.87 183.675C2553.02 193.358 2551.1 203.8 2551.1 215C2551.1 226.2 2553.02 236.642 2556.87 246.325C2560.72 256.008 2566.03 264.408 2572.8 271.525C2579.56 278.642 2587.73 284.3 2597.3 288.5C2606.86 292.7 2617.25 294.8 2628.45 294.8Z" fill="#ffffff" fill-rule="nonzero" opacity="1" stroke="none" vectornator:layerName="Curve 9"/>
<path d="M3021.5 308.45L2970.75 239.5L2970.75 92.5L3021.5 92.5L3021.5 308.45ZM3021.5 337.5L2981.6 337.5C2977.63 337.5 2973.55 336.567 2969.35 334.7C2965.15 332.833 2961.76 330.15 2959.2 326.65L2851.75 173.7L2851.75 337.5L2801 337.5L2801 92.5L2835.65 92.5C2839.61 92.5 2843.7 93.4333 2847.9 95.3C2852.1 97.1667 2855.36 99.85 2857.7 103.35C2874.5 128.083 2891.12 152.875 2907.57 177.725C2924.02 202.575 2941 227.017 2958.5 251.05C2969 265.75 2979.5 280.217 2990 294.45C3000.5 308.683 3011 323.033 3021.5 337.5Z" fill="#ffffff" fill-rule="nonzero" opacity="1" stroke="none" vectornator:layerName="Curve 10"/>
<path d="M8.50426 180.572L8.50426 21.7181C8.50426 19.7161 10.1272 18.0931 12.1292 18.0931L15.7543 18.0931C87.828 18.0931 146.255 76.5201 146.255 148.594L146.255 283.156C146.255 285.721 142.107 286.293 141.283 283.863C113.952 203.343 51.3409 189.154 11.6907 184.182C9.86671 183.953 8.50426 182.41 8.50426 180.572Z" fill="#ffffff" fill-rule="nonzero" opacity="1" stroke="none" vectornator:layerName="path"/>
<path d="M299.946 4.90556L433.131 81.7997C434.865 82.8008 435.452 85.0306 434.451 86.7642C398.414 149.182 318.339 171.022 255.921 134.985L146.743 71.9512C144.524 70.6698 146.091 66.7834 148.607 67.2724C229.274 82.9403 271.694 36.9735 295.223 5.86359C296.333 4.39638 298.353 3.98577 299.946 4.90556Z" fill="#00d060" fill-rule="nonzero" opacity="1" stroke="none" vectornator:layerName="path"/>
<path d="M305.434 348.206L172.249 425.1C170.515 426.101 168.291 425.495 167.29 423.761C131.253 361.344 152.376 281.076 214.794 245.04L323.972 182.005C326.191 180.724 328.773 184.025 327.092 185.959C273.19 247.985 291.788 307.705 306.965 343.637C307.681 345.332 307.027 347.286 305.434 348.206Z" fill="#ffffff" fill-rule="nonzero" opacity="1" stroke="none" vectornator:layerName="path"/>
</g>
</svg>
