<?xml version="1.0" encoding="UTF-8" standalone="no"?>
<!DOCTYPE svg PUBLIC "-//W3C//DTD SVG 1.1//EN" "http://www.w3.org/Graphics/SVG/1.1/DTD/svg11.dtd">
<!-- Created with Vectornator (http://vectornator.io/) -->
<svg height="100%" stroke-miterlimit="10" style="fill-rule:nonzero;clip-rule:evenodd;stroke-linecap:round;stroke-linejoin:round;" version="1.1" viewBox="0 0 3030 430" width="100%" xml:space="preserve" xmlns="http://www.w3.org/2000/svg" xmlns:vectornator="http://vectornator.io" xmlns:xlink="http://www.w3.org/1999/xlink">
<defs/>
<g id="Layer-1" vectornator:layerName="Layer 1">
<path d="M519.244 92.5L519.244 137.313L601.838 137.313L601.838 337.5L652.588 337.5L652.588 137.313L886.463 137.313C889.963 137.312 893.242 136.256 896.276 134.156C899.309 132.056 901.421 129.36 902.588 126.094L915.869 92.5L519.244 92.5ZM709.994 193.656L709.994 236.344L839.494 236.344C842.994 236.344 846.203 235.319 849.119 233.219C852.036 231.119 854.188 228.423 855.588 225.156L868.213 193.656L709.994 193.656ZM709.994 293.75L709.994 337.5L887.463 337.5C891.196 337.5 894.555 336.444 897.588 334.344C900.621 332.244 902.734 329.469 903.901 325.969L915.807 293.75L709.994 293.75Z" fill="#0c3146" fill-rule="nonzero" opacity="1" stroke="none" vectornator:layerName="Curve 1"/>
<path d="M1056.15 341.175C1038.42 341.175 1021.62 338.083 1005.75 331.9C989.882 325.717 975.999 317.025 964.099 305.825C952.199 294.625 942.807 281.325 935.924 265.925C929.04 250.525 925.599 233.725 925.599 215.525C925.599 197.325 929.04 180.467 935.924 164.95C942.807 149.433 952.199 136.017 964.099 124.7C975.999 113.383 989.882 104.575 1005.75 98.275C1021.62 91.975 1038.42 88.825 1056.15 88.825C1075.28 88.825 1093.83 92.7333 1111.8 100.55C1129.77 108.367 1145.05 119.625 1157.65 134.325C1155.55 135.725 1152.81 137.708 1149.42 140.275C1146.04 142.842 1142.54 145.35 1138.92 147.8C1135.31 150.25 1131.75 152.408 1128.25 154.275C1124.75 156.142 1121.72 157.075 1119.15 157.075C1116.58 157.075 1113.49 155.967 1109.87 153.75C1106.26 151.533 1101.88 149.025 1096.75 146.225C1091.62 143.425 1085.72 140.917 1079.07 138.7C1072.42 136.483 1064.78 135.375 1056.15 135.375C1044.95 135.375 1034.57 137.475 1025 141.675C1015.43 145.875 1007.15 151.533 1000.15 158.65C993.149 165.767 987.665 174.225 983.699 184.025C979.732 193.825 977.749 204.325 977.749 215.525C977.749 226.725 979.79 237.167 983.874 246.85C987.957 256.533 993.615 264.875 1000.85 271.875C1008.08 278.875 1016.54 284.417 1026.22 288.5C1035.91 292.583 1046.35 294.625 1057.55 294.625C1065.95 294.625 1073.42 293.575 1079.95 291.475C1086.48 289.375 1092.2 286.983 1097.1 284.3C1102 281.617 1106.26 279.225 1109.87 277.125C1113.49 275.025 1116.58 273.975 1119.15 273.975C1121.72 273.975 1124.69 274.85 1128.07 276.6C1131.46 278.35 1134.9 280.45 1138.4 282.9C1141.9 285.35 1145.28 287.858 1148.55 290.425C1151.82 292.992 1154.5 294.975 1156.6 296.375C1150.53 303.375 1143.65 309.675 1135.95 315.275C1128.25 320.875 1120.02 325.6 1111.27 329.45C1102.52 333.3 1093.48 336.217 1084.15 338.2C1074.82 340.183 1065.48 341.175 1056.15 341.175Z" fill="#0c3146" fill-rule="nonzero" opacity="1" stroke="none" vectornator:layerName="Curve 2"/>
<path d="M1679.79 337.5L1634.64 337.5C1631.37 337.5 1628.28 336.683 1625.36 335.05C1622.45 333.417 1620.29 331.083 1618.89 328.05L1580.39 253.15C1578.99 250.117 1576.83 247.783 1573.91 246.15C1571 244.517 1567.91 243.7 1564.64 243.7L1519.84 243.7L1519.84 337.5L1469.09 337.5L1469.09 202.05L1584.59 202.05C1589.72 202.05 1594.56 201.35 1599.11 199.95C1603.66 198.55 1607.69 196.45 1611.19 193.65C1614.69 190.85 1617.49 187.408 1619.59 183.325C1621.69 179.242 1622.74 174.517 1622.74 169.15C1622.74 163.783 1621.69 159.058 1619.59 154.975C1617.49 150.892 1614.69 147.45 1611.19 144.65C1607.69 141.85 1603.66 139.75 1599.11 138.35C1594.56 136.95 1589.72 136.25 1584.59 136.25L1486.59 136.25C1481.92 136.25 1477.84 134.5 1474.34 131C1470.84 127.5 1469.09 123.417 1469.09 118.75L1469.09 92.5L1589.14 92.5C1600.57 92.5 1611.42 94.1917 1621.69 97.575C1631.96 100.958 1640.94 105.858 1648.64 112.275C1656.34 118.692 1662.41 126.625 1666.84 136.075C1671.27 145.525 1673.49 156.317 1673.49 168.45C1673.49 184.083 1669.11 197.85 1660.36 209.75C1651.61 221.65 1640.24 230.633 1626.24 236.7L1679.79 337.5Z" fill="#0c3146" fill-rule="nonzero" opacity="1" stroke="none" vectornator:layerName="Curve 3"/>
<path d="M1765.27 134.5L1765.27 337.5L1714.52 337.5L1714.52 92.5L1829.32 92.5C1839.82 92.5 1850.02 93.8417 1859.94 96.525C1869.86 99.2083 1878.72 103.292 1886.54 108.775C1894.36 114.258 1900.66 121.2 1905.44 129.6C1910.22 138 1912.62 148.033 1912.62 159.7C1912.62 170.9 1909.93 180.817 1904.57 189.45C1899.2 198.083 1891.97 205.317 1882.87 211.15C1893.83 216.517 1902.93 223.925 1910.17 233.375C1917.4 242.825 1921.02 253.85 1921.02 266.45C1921.02 278.583 1918.62 289.142 1913.84 298.125C1909.06 307.108 1902.64 314.517 1894.59 320.35C1886.54 326.183 1877.38 330.5 1867.12 333.3C1856.85 336.1 1846.12 337.5 1834.92 337.5L1782.77 337.5L1794.67 306.7C1795.83 303.433 1797.93 300.75 1800.97 298.65C1804 296.55 1807.27 295.5 1810.77 295.5C1816.83 295.5 1823.31 295.442 1830.19 295.325C1837.07 295.208 1843.49 294.217 1849.44 292.35C1855.39 290.483 1860.35 287.333 1864.32 282.9C1868.28 278.467 1870.27 272.05 1870.27 263.65C1870.27 258.283 1869.16 253.617 1866.94 249.65C1864.72 245.683 1861.75 242.417 1858.02 239.85C1854.28 237.283 1850.08 235.358 1845.42 234.075C1840.75 232.792 1835.97 232.15 1831.07 232.15L1783.47 232.15L1793.97 203.8C1795.13 200.533 1797.29 197.85 1800.44 195.75C1803.59 193.65 1806.92 192.6 1810.42 192.6C1815.78 192.6 1821.44 192.483 1827.39 192.25C1833.34 192.017 1838.88 191.025 1844.02 189.275C1849.15 187.525 1853.41 184.667 1856.79 180.7C1860.17 176.733 1861.87 171.017 1861.87 163.55C1861.87 158.417 1860.87 153.983 1858.89 150.25C1856.91 146.517 1854.22 143.483 1850.84 141.15C1847.46 138.817 1843.67 137.125 1839.47 136.075C1835.27 135.025 1830.83 134.5 1826.17 134.5L1765.27 134.5Z" fill="#0c3146" fill-rule="nonzero" opacity="1" stroke="none" vectornator:layerName="Curve 4"/>
<path d="M2014.47 337.5L1963.72 337.5L1963.72 92.5L1996.97 92.5C2001.63 92.5 2005.72 94.25 2009.22 97.75C2012.72 101.25 2014.47 105.333 2014.47 110L2014.47 337.5Z" fill="#0c3146" fill-rule="nonzero" opacity="1" stroke="none" vectornator:layerName="Curve 5"/>
<path d="M2165.31 337.5L2114.56 337.5L2114.56 137.3L2048.92 137.3L2048.92 92.5L2230.96 92.5L2217.66 126.1C2216.5 129.367 2214.4 132.05 2211.36 134.15C2208.33 136.25 2205.06 137.3 2201.56 137.3L2165.31 137.3L2165.31 337.5Z" fill="#0c3146" fill-rule="nonzero" opacity="1" stroke="none" vectornator:layerName="Curve 6"/>
<path d="M2476.1 337.5L2430.95 337.5C2427.68 337.5 2424.59 336.683 2421.68 335.05C2418.76 333.417 2416.6 331.083 2415.2 328.05L2376.7 253.15C2375.3 250.117 2373.14 247.783 2370.23 246.15C2367.31 244.517 2364.22 243.7 2360.95 243.7L2316.15 243.7L2316.15 337.5L2265.4 337.5L2265.4 202.05L2380.9 202.05C2386.03 202.05 2390.88 201.35 2395.43 199.95C2399.98 198.55 2404 196.45 2407.5 193.65C2411 190.85 2413.8 187.408 2415.9 183.325C2418 179.242 2419.05 174.517 2419.05 169.15C2419.05 163.783 2418 159.058 2415.9 154.975C2413.8 150.892 2411 147.45 2407.5 144.65C2404 141.85 2399.98 139.75 2395.43 138.35C2390.88 136.95 2386.03 136.25 2380.9 136.25L2282.9 136.25C2278.23 136.25 2274.15 134.5 2270.65 131C2267.15 127.5 2265.4 123.417 2265.4 118.75L2265.4 92.5L2385.45 92.5C2396.88 92.5 2407.73 94.1917 2418 97.575C2428.27 100.958 2437.25 105.858 2444.95 112.275C2452.65 118.692 2458.72 126.625 2463.15 136.075C2467.58 145.525 2469.8 156.317 2469.8 168.45C2469.8 184.083 2465.43 197.85 2456.68 209.75C2447.93 221.65 2436.55 230.633 2422.55 236.7L2476.1 337.5Z" fill="#0c3146" fill-rule="nonzero" opacity="1" stroke="none" vectornator:layerName="Curve 7"/>
<path d="M1304.51 341.35C1286.78 341.35 1270.04 338.142 1254.29 331.725C1238.54 325.308 1224.83 316.442 1213.16 305.125C1201.5 293.808 1192.22 280.45 1185.34 265.05C1178.45 249.65 1175.01 232.967 1175.01 215C1175.01 197.033 1178.45 180.35 1185.34 164.95C1192.22 149.55 1201.5 136.192 1213.16 124.875C1224.83 113.558 1238.54 104.692 1254.29 98.275C1270.04 91.8583 1286.78 88.65 1304.51 88.65C1322.25 88.65 1338.99 91.8583 1354.74 98.275C1370.49 104.692 1384.25 113.558 1396.04 124.875C1407.82 136.192 1417.15 149.55 1424.04 164.95C1430.92 180.35 1434.36 197.033 1434.36 215C1434.36 232.967 1430.92 249.65 1424.04 265.05C1417.15 280.45 1407.82 293.808 1396.04 305.125C1384.25 316.442 1370.49 325.308 1354.74 331.725C1338.99 338.142 1322.25 341.35 1304.51 341.35ZM1304.51 294.8C1315.95 294.8 1326.39 292.758 1335.84 288.675C1345.29 284.592 1353.45 278.933 1360.34 271.7C1367.22 264.467 1372.59 256.008 1376.44 246.325C1380.29 236.642 1382.21 226.2 1382.21 215C1382.21 203.8 1380.29 193.358 1376.44 183.675C1372.59 173.992 1367.22 165.533 1360.34 158.3C1353.45 151.067 1345.29 145.408 1335.84 141.325C1326.39 137.242 1315.95 135.2 1304.51 135.2C1293.31 135.2 1282.93 137.3 1273.36 141.5C1263.8 145.7 1255.63 151.358 1248.86 158.475C1242.1 165.592 1236.79 173.992 1232.94 183.675C1229.09 193.358 1227.16 203.8 1227.16 215C1227.16 226.2 1229.09 236.642 1232.94 246.325C1236.79 256.008 1242.1 264.408 1248.86 271.525C1255.63 278.642 1263.8 284.3 1273.36 288.5C1282.93 292.7 1293.31 294.8 1304.51 294.8Z" fill="#00d060" fill-rule="nonzero" opacity="1" stroke="none" vectornator:layerName="Curve 8"/>
<path d="M2626.95 341.35C2609.22 341.35 2592.48 338.142 2576.73 331.725C2560.98 325.308 2547.27 316.442 2535.6 305.125C2523.93 293.808 2514.66 280.45 2507.77 265.05C2500.89 249.65 2497.45 232.967 2497.45 215C2497.45 197.033 2500.89 180.35 2507.77 164.95C2514.66 149.55 2523.93 136.192 2535.6 124.875C2547.27 113.558 2560.98 104.692 2576.73 98.275C2592.48 91.8583 2609.22 88.65 2626.95 88.65C2644.68 88.65 2661.43 91.8583 2677.18 98.275C2692.93 104.692 2706.69 113.558 2718.48 124.875C2730.26 136.192 2739.59 149.55 2746.48 164.95C2753.36 180.35 2756.8 197.033 2756.8 215C2756.8 232.967 2753.36 249.65 2746.48 265.05C2739.59 280.45 2730.26 293.808 2718.48 305.125C2706.69 316.442 2692.93 325.308 2677.18 331.725C2661.43 338.142 2644.68 341.35 2626.95 341.35ZM2626.95 294.8C2638.38 294.8 2648.83 292.758 2658.27 288.675C2667.73 284.592 2675.89 278.933 2682.77 271.7C2689.66 264.467 2695.03 256.008 2698.88 246.325C2702.73 236.642 2704.65 226.2 2704.65 215C2704.65 203.8 2702.73 193.358 2698.88 183.675C2695.03 173.992 2689.66 165.533 2682.77 158.3C2675.89 151.067 2667.73 145.408 2658.27 141.325C2648.83 137.242 2638.38 135.2 2626.95 135.2C2615.75 135.2 2605.37 137.3 2595.8 141.5C2586.23 145.7 2578.07 151.358 2571.3 158.475C2564.53 165.592 2559.23 173.992 2555.38 183.675C2551.53 193.358 2549.6 203.8 2549.6 215C2549.6 226.2 2551.53 236.642 2555.38 246.325C2559.23 256.008 2564.53 264.408 2571.3 271.525C2578.07 278.642 2586.23 284.3 2595.8 288.5C2605.37 292.7 2615.75 294.8 2626.95 294.8Z" fill="#0c3146" fill-rule="nonzero" opacity="1" stroke="none" vectornator:layerName="Curve 9"/>
<path d="M3020 308.45L2969.25 239.5L2969.25 92.5L3020 92.5L3020 308.45ZM3020 337.5L2980.1 337.5C2976.13 337.5 2972.05 336.567 2967.85 334.7C2963.65 332.833 2960.27 330.15 2957.7 326.65L2850.25 173.7L2850.25 337.5L2799.5 337.5L2799.5 92.5L2834.15 92.5C2838.12 92.5 2842.2 93.4333 2846.4 95.3C2850.6 97.1667 2853.87 99.85 2856.2 103.35C2873 128.083 2889.62 152.875 2906.07 177.725C2922.53 202.575 2939.5 227.017 2957 251.05C2967.5 265.75 2978 280.217 2988.5 294.45C2999 308.683 3009.5 323.033 3020 337.5Z" fill="#0c3146" fill-rule="nonzero" opacity="1" stroke="none" vectornator:layerName="Curve 10"/>
<path d="M7.00852 180.572L7.00852 21.7181C7.00852 19.7161 8.63147 18.0931 10.6335 18.0931L14.2585 18.0931C86.3322 18.0931 144.759 76.5201 144.759 148.594L144.759 283.156C144.759 285.721 140.611 286.293 139.787 283.863C112.456 203.343 49.8452 189.154 10.1949 184.182C8.37097 183.953 7.00852 182.41 7.00852 180.572Z" fill="#0c3146" fill-rule="nonzero" opacity="1" stroke="none" vectornator:layerName="path"/>
<path d="M298.45 4.90556L431.635 81.7997C433.369 82.8008 433.956 85.0306 432.955 86.7642C396.918 149.182 316.843 171.022 254.426 134.985L145.247 71.9512C143.028 70.6698 144.595 66.7834 147.111 67.2724C227.778 82.9403 270.199 36.9735 293.727 5.86359C294.837 4.39638 296.857 3.98577 298.45 4.90556Z" fill="#00d060" fill-rule="nonzero" opacity="1" stroke="none" vectornator:layerName="path"/>
<path d="M303.938 348.206L170.753 425.1C169.019 426.101 166.795 425.495 165.794 423.761C129.757 361.344 150.881 281.076 213.299 245.04L322.477 182.005C324.696 180.724 327.277 184.025 325.597 185.959C271.694 247.985 290.292 307.705 305.47 343.637C306.186 345.332 305.531 347.286 303.938 348.206Z" fill="#0c3146" fill-rule="nonzero" opacity="1" stroke="none" vectornator:layerName="path"/>
</g>
</svg>
