<?xml version="1.0" encoding="UTF-8" standalone="no"?>
<!DOCTYPE svg PUBLIC "-//W3C//DTD SVG 1.1//EN" "http://www.w3.org/Graphics/SVG/1.1/DTD/svg11.dtd">
<!-- Created with Vectornator (http://vectornator.io/) -->
<svg height="100%" stroke-miterlimit="10" style="fill-rule:nonzero;clip-rule:evenodd;stroke-linecap:round;stroke-linejoin:round;" version="1.1" viewBox="0 0 2520 300" width="100%" xml:space="preserve" xmlns="http://www.w3.org/2000/svg" xmlns:vectornator="http://vectornator.io" xmlns:xlink="http://www.w3.org/1999/xlink">
<defs/>
<g id="Layer-1" vectornator:layerName="Layer 1">
<path d="M9.62213 27.5L9.62213 72.3125L92.2159 72.3125L92.2159 272.5L142.966 272.5L142.966 72.3125L376.841 72.3125C380.341 72.3125 383.62 71.2563 386.653 69.1562C389.687 67.0563 391.799 64.3604 392.966 61.0937L406.247 27.5L9.62213 27.5ZM200.372 128.656L200.372 171.344L329.872 171.344C333.372 171.344 336.58 170.319 339.497 168.219C342.414 166.119 344.566 163.423 345.966 160.156L358.591 128.656L200.372 128.656ZM200.372 228.75L200.372 272.5L377.841 272.5C381.574 272.5 384.933 271.444 387.966 269.344C390.999 267.244 393.112 264.469 394.278 260.969L406.185 228.75L200.372 228.75Z" fill="#ffffff" fill-rule="nonzero" opacity="1" stroke="none" vectornator:layerName="Curve 1"/>
<path d="M546.526 276.175C528.793 276.175 511.993 273.083 496.126 266.9C480.26 260.717 466.376 252.025 454.476 240.825C442.576 229.625 433.185 216.325 426.301 200.925C419.418 185.525 415.976 168.725 415.976 150.525C415.976 132.325 419.418 115.467 426.301 99.95C433.185 84.4333 442.576 71.0167 454.476 59.7C466.376 48.3833 480.26 39.575 496.126 33.275C511.993 26.975 528.793 23.825 546.526 23.825C565.66 23.825 584.21 27.7333 602.176 35.55C620.143 43.3667 635.426 54.625 648.026 69.325C645.926 70.725 643.185 72.7083 639.801 75.275C636.418 77.8417 632.918 80.35 629.301 82.8C625.685 85.25 622.126 87.4083 618.626 89.275C615.126 91.1417 612.093 92.075 609.526 92.075C606.96 92.075 603.868 90.9667 600.251 88.75C596.635 86.5333 592.26 84.025 587.126 81.225C581.993 78.425 576.101 75.9167 569.451 73.7C562.801 71.4833 555.16 70.375 546.526 70.375C535.326 70.375 524.943 72.475 515.376 76.675C505.81 80.875 497.526 86.5333 490.526 93.65C483.526 100.767 478.043 109.225 474.076 119.025C470.11 128.825 468.126 139.325 468.126 150.525C468.126 161.725 470.168 172.167 474.251 181.85C478.335 191.533 483.993 199.875 491.226 206.875C498.46 213.875 506.918 219.417 516.601 223.5C526.285 227.583 536.726 229.625 547.926 229.625C556.326 229.625 563.793 228.575 570.326 226.475C576.86 224.375 582.576 221.983 587.476 219.3C592.376 216.617 596.635 214.225 600.251 212.125C603.868 210.025 606.96 208.975 609.526 208.975C612.093 208.975 615.068 209.85 618.451 211.6C621.835 213.35 625.276 215.45 628.776 217.9C632.276 220.35 635.66 222.858 638.926 225.425C642.193 227.992 644.876 229.975 646.976 231.375C640.91 238.375 634.026 244.675 626.326 250.275C618.626 255.875 610.401 260.6 601.651 264.45C592.901 268.3 583.86 271.217 574.526 273.2C565.193 275.183 555.86 276.175 546.526 276.175Z" fill="#ffffff" fill-rule="nonzero" opacity="1" stroke="none" vectornator:layerName="Curve 2"/>
<path d="M1170.17 272.5L1125.02 272.5C1121.75 272.5 1118.66 271.683 1115.74 270.05C1112.83 268.417 1110.67 266.083 1109.27 263.05L1070.77 188.15C1069.37 185.117 1067.21 182.783 1064.29 181.15C1061.38 179.517 1058.28 178.7 1055.02 178.7L1010.22 178.7L1010.22 272.5L959.467 272.5L959.467 137.05L1074.97 137.05C1080.1 137.05 1084.94 136.35 1089.49 134.95C1094.04 133.55 1098.07 131.45 1101.57 128.65C1105.07 125.85 1107.87 122.408 1109.97 118.325C1112.07 114.242 1113.12 109.517 1113.12 104.15C1113.12 98.7833 1112.07 94.0583 1109.97 89.975C1107.87 85.8917 1105.07 82.45 1101.57 79.65C1098.07 76.85 1094.04 74.75 1089.49 73.35C1084.94 71.95 1080.1 71.25 1074.97 71.25L976.967 71.25C972.3 71.25 968.217 69.5 964.717 66C961.217 62.5 959.467 58.4167 959.467 53.75L959.467 27.5L1079.52 27.5C1090.95 27.5 1101.8 29.1917 1112.07 32.575C1122.33 35.9583 1131.32 40.8583 1139.02 47.275C1146.72 53.6917 1152.78 61.625 1157.22 71.075C1161.65 80.525 1163.87 91.3167 1163.87 103.45C1163.87 119.083 1159.49 132.85 1150.74 144.75C1141.99 156.65 1130.62 165.633 1116.62 171.7L1170.17 272.5Z" fill="#ffffff" fill-rule="nonzero" opacity="1" stroke="none" vectornator:layerName="Curve 3"/>
<path d="M1255.64 69.5L1255.64 272.5L1204.89 272.5L1204.89 27.5L1319.69 27.5C1330.19 27.5 1340.4 28.8417 1350.32 31.525C1360.24 34.2083 1369.1 38.2917 1376.92 43.775C1384.74 49.2583 1391.04 56.2 1395.82 64.6C1400.6 73 1402.99 83.0333 1402.99 94.7C1402.99 105.9 1400.31 115.817 1394.94 124.45C1389.58 133.083 1382.34 140.317 1373.24 146.15C1384.21 151.517 1393.31 158.925 1400.54 168.375C1407.78 177.825 1411.39 188.85 1411.39 201.45C1411.39 213.583 1409 224.142 1404.22 233.125C1399.44 242.108 1393.02 249.517 1384.97 255.35C1376.92 261.183 1367.76 265.5 1357.49 268.3C1347.23 271.1 1336.49 272.5 1325.29 272.5L1273.14 272.5L1285.04 241.7C1286.21 238.433 1288.31 235.75 1291.34 233.65C1294.38 231.55 1297.64 230.5 1301.14 230.5C1307.21 230.5 1313.69 230.442 1320.57 230.325C1327.45 230.208 1333.87 229.217 1339.82 227.35C1345.77 225.483 1350.73 222.333 1354.69 217.9C1358.66 213.467 1360.64 207.05 1360.64 198.65C1360.64 193.283 1359.54 188.617 1357.32 184.65C1355.1 180.683 1352.13 177.417 1348.39 174.85C1344.66 172.283 1340.46 170.358 1335.79 169.075C1331.13 167.792 1326.34 167.15 1321.44 167.15L1273.84 167.15L1284.34 138.8C1285.51 135.533 1287.67 132.85 1290.82 130.75C1293.97 128.65 1297.29 127.6 1300.79 127.6C1306.16 127.6 1311.82 127.483 1317.77 127.25C1323.72 127.017 1329.26 126.025 1334.39 124.275C1339.53 122.525 1343.79 119.667 1347.17 115.7C1350.55 111.733 1352.24 106.017 1352.24 98.55C1352.24 93.4167 1351.25 88.9833 1349.27 85.25C1347.29 81.5167 1344.6 78.4833 1341.22 76.15C1337.84 73.8167 1334.04 72.125 1329.84 71.075C1325.64 70.025 1321.21 69.5 1316.54 69.5L1255.64 69.5Z" fill="#ffffff" fill-rule="nonzero" opacity="1" stroke="none" vectornator:layerName="Curve 4"/>
<path d="M1504.84 272.5L1454.09 272.5L1454.09 27.5L1487.34 27.5C1492.01 27.5 1496.09 29.25 1499.59 32.75C1503.09 36.25 1504.84 40.3333 1504.84 45L1504.84 272.5Z" fill="#ffffff" fill-rule="nonzero" opacity="1" stroke="none" vectornator:layerName="Curve 5"/>
<path d="M1655.69 272.5L1604.94 272.5L1604.94 72.3L1539.29 72.3L1539.29 27.5L1721.34 27.5L1708.04 61.1C1706.88 64.3667 1704.78 67.05 1701.74 69.15C1698.71 71.25 1695.44 72.3 1691.94 72.3L1655.69 72.3L1655.69 272.5Z" fill="#ffffff" fill-rule="nonzero" opacity="1" stroke="none" vectornator:layerName="Curve 6"/>
<path d="M1966.48 272.5L1921.33 272.5C1918.06 272.5 1914.97 271.683 1912.05 270.05C1909.14 268.417 1906.98 266.083 1905.58 263.05L1867.08 188.15C1865.68 185.117 1863.52 182.783 1860.6 181.15C1857.69 179.517 1854.59 178.7 1851.33 178.7L1806.53 178.7L1806.53 272.5L1755.78 272.5L1755.78 137.05L1871.28 137.05C1876.41 137.05 1881.25 136.35 1885.8 134.95C1890.35 133.55 1894.38 131.45 1897.88 128.65C1901.38 125.85 1904.18 122.408 1906.28 118.325C1908.38 114.242 1909.43 109.517 1909.43 104.15C1909.43 98.7833 1908.38 94.0583 1906.28 89.975C1904.18 85.8917 1901.38 82.45 1897.88 79.65C1894.38 76.85 1890.35 74.75 1885.8 73.35C1881.25 71.95 1876.41 71.25 1871.28 71.25L1773.28 71.25C1768.61 71.25 1764.53 69.5 1761.03 66C1757.53 62.5 1755.78 58.4167 1755.78 53.75L1755.78 27.5L1875.83 27.5C1887.26 27.5 1898.11 29.1917 1908.38 32.575C1918.64 35.9583 1927.63 40.8583 1935.33 47.275C1943.03 53.6917 1949.09 61.625 1953.53 71.075C1957.96 80.525 1960.18 91.3167 1960.18 103.45C1960.18 119.083 1955.8 132.85 1947.05 144.75C1938.3 156.65 1926.93 165.633 1912.93 171.7L1966.48 272.5Z" fill="#ffffff" fill-rule="nonzero" opacity="1" stroke="none" vectornator:layerName="Curve 7"/>
<path d="M794.89 276.35C777.157 276.35 760.415 273.142 744.665 266.725C728.915 260.308 715.207 251.442 703.54 240.125C691.873 228.808 682.598 215.45 675.715 200.05C668.832 184.65 665.39 167.967 665.39 150C665.39 132.033 668.832 115.35 675.715 99.95C682.598 84.55 691.873 71.1917 703.54 59.875C715.207 48.5583 728.915 39.6917 744.665 33.275C760.415 26.8583 777.157 23.65 794.89 23.65C812.623 23.65 829.365 26.8583 845.115 33.275C860.865 39.6917 874.632 48.5583 886.415 59.875C898.198 71.1917 907.532 84.55 914.415 99.95C921.298 115.35 924.74 132.033 924.74 150C924.74 167.967 921.298 184.65 914.415 200.05C907.532 215.45 898.198 228.808 886.415 240.125C874.632 251.442 860.865 260.308 845.115 266.725C829.365 273.142 812.623 276.35 794.89 276.35ZM794.89 229.8C806.323 229.8 816.765 227.758 826.215 223.675C835.665 219.592 843.832 213.933 850.715 206.7C857.598 199.467 862.965 191.008 866.815 181.325C870.665 171.642 872.59 161.2 872.59 150C872.59 138.8 870.665 128.358 866.815 118.675C862.965 108.992 857.598 100.533 850.715 93.3C843.832 86.0667 835.665 80.4083 826.215 76.325C816.765 72.2417 806.323 70.2 794.89 70.2C783.69 70.2 773.307 72.3 763.74 76.5C754.173 80.7 746.007 86.3583 739.24 93.475C732.473 100.592 727.165 108.992 723.315 118.675C719.465 128.358 717.54 138.8 717.54 150C717.54 161.2 719.465 171.642 723.315 181.325C727.165 191.008 732.473 199.408 739.24 206.525C746.007 213.642 754.173 219.3 763.74 223.5C773.307 227.7 783.69 229.8 794.89 229.8Z" fill="#00d060" fill-rule="nonzero" opacity="1" stroke="none" vectornator:layerName="Curve 8"/>
<path d="M2117.33 276.35C2099.59 276.35 2082.85 273.142 2067.1 266.725C2051.35 260.308 2037.64 251.442 2025.98 240.125C2014.31 228.808 2005.04 215.45 1998.15 200.05C1991.27 184.65 1987.83 167.967 1987.83 150C1987.83 132.033 1991.27 115.35 1998.15 99.95C2005.04 84.55 2014.31 71.1917 2025.98 59.875C2037.64 48.5583 2051.35 39.6917 2067.1 33.275C2082.85 26.8583 2099.59 23.65 2117.33 23.65C2135.06 23.65 2151.8 26.8583 2167.55 33.275C2183.3 39.6917 2197.07 48.5583 2208.85 59.875C2220.64 71.1917 2229.97 84.55 2236.85 99.95C2243.74 115.35 2247.18 132.033 2247.18 150C2247.18 167.967 2243.74 184.65 2236.85 200.05C2229.97 215.45 2220.64 228.808 2208.85 240.125C2197.07 251.442 2183.3 260.308 2167.55 266.725C2151.8 273.142 2135.06 276.35 2117.33 276.35ZM2117.33 229.8C2128.76 229.8 2139.2 227.758 2148.65 223.675C2158.1 219.592 2166.27 213.933 2173.15 206.7C2180.04 199.467 2185.4 191.008 2189.25 181.325C2193.1 171.642 2195.03 161.2 2195.03 150C2195.03 138.8 2193.1 128.358 2189.25 118.675C2185.4 108.992 2180.04 100.533 2173.15 93.3C2166.27 86.0667 2158.1 80.4083 2148.65 76.325C2139.2 72.2417 2128.76 70.2 2117.33 70.2C2106.13 70.2 2095.74 72.3 2086.18 76.5C2076.61 80.7 2068.44 86.3583 2061.68 93.475C2054.91 100.592 2049.6 108.992 2045.75 118.675C2041.9 128.358 2039.98 138.8 2039.98 150C2039.98 161.2 2041.9 171.642 2045.75 181.325C2049.6 191.008 2054.91 199.408 2061.68 206.525C2068.44 213.642 2076.61 219.3 2086.18 223.5C2095.74 227.7 2106.13 229.8 2117.33 229.8Z" fill="#ffffff" fill-rule="nonzero" opacity="1" stroke="none" vectornator:layerName="Curve 9"/>
<path d="M2510.38 243.45L2459.63 174.5L2459.63 27.5L2510.38 27.5L2510.38 243.45ZM2510.38 272.5L2470.48 272.5C2466.51 272.5 2462.43 271.567 2458.23 269.7C2454.03 267.833 2450.64 265.15 2448.08 261.65L2340.63 108.7L2340.63 272.5L2289.88 272.5L2289.88 27.5L2324.53 27.5C2328.49 27.5 2332.58 28.4333 2336.78 30.3C2340.98 32.1667 2344.24 34.85 2346.58 38.35C2363.38 63.0833 2380 87.875 2396.45 112.725C2412.9 137.575 2429.88 162.017 2447.38 186.05C2457.88 200.75 2468.38 215.217 2478.88 229.45C2489.38 243.683 2499.88 258.033 2510.38 272.5Z" fill="#ffffff" fill-rule="nonzero" opacity="1" stroke="none" vectornator:layerName="Curve 10"/>
</g>
</svg>
