<svg xmlns="http://www.w3.org/2000/svg" fill="none" viewBox="0 0 96 96" id="Contentful--Streamline-Svg-Logos">
  <desc>
    Contentful Streamline Icon: https://streamlinehq.com
  </desc>
  <path fill="#fae501" d="M34.8546 66.5064c-4.9937 -4.7 -7.9312 -11.1625 -7.9312 -18.5063s2.9375 -13.8063 7.6375 -18.5063c4.1125 -4.1125 4.1125 -10.575 0 -14.6875 -4.1125 -4.1125 -10.575 -4.1125 -14.6875 0 -8.2251 8.5188 -13.51256 20.2688 -13.51256 33.1938 0 12.925 5.28746 24.675 13.80626 33.1938 4.1125 4.1125 10.575 4.1125 14.6875 0 3.8188 -4.1125 3.8188 -10.575 0 -14.6875Z" stroke-width="1"></path>
  <path fill="#4fb5e1" d="M34.8539 29.4938c4.7 -4.9938 11.1625 -7.9313 18.5063 -7.9313S67.1665 24.5 71.8665 29.2c4.1125 4.1125 10.575 4.1125 14.6875 0 4.1125 -4.1125 4.1125 -10.575 0 -14.6875C78.0353 6.28751 66.2852 1 53.3602 1c-12.925 0 -24.675 5.28751 -33.1938 13.8063 -4.1125 4.1125 -4.1125 10.575 0 14.6875 4.1125 3.8187 10.575 3.8187 14.6875 0Z" stroke-width="1"></path>
  <path fill="#f05751" d="M71.8665 66.5062c-4.7 4.9937 -11.1625 7.9312 -18.5063 7.9312s-13.8063 -2.9375 -18.5063 -7.6375c-4.1125 -4.1125 -10.575 -4.1125 -14.6875 0 -4.1125 4.1125 -4.1125 10.575 0 14.6875 8.5188 8.225 20.2688 13.5125 33.1938 13.5125 12.925 0 24.6751 -5.2875 33.1938 -13.8062 4.1125 -4.1125 4.1125 -10.575 0 -14.6875 -4.1125 -3.8188 -10.575 -3.8188 -14.6875 0Z" stroke-width="1"></path>
  <path fill="#0681b6" d="M27.5108 32.4309c5.6781 0 10.2812 -4.603 10.2812 -10.2812s-4.6031 -10.2813 -10.2812 -10.2813c-5.6782 0 -10.2813 4.6031 -10.2813 10.2813 0 5.6782 4.6031 10.2812 10.2813 10.2812Z" stroke-width="1"></path>
  <path fill="#cd4739" d="M27.5108 84.1314c5.6781 0 10.2812 -4.6031 10.2812 -10.2813 0 -5.6782 -4.6031 -10.2813 -10.2812 -10.2813 -5.6782 0 -10.2813 4.6031 -10.2813 10.2813 0 5.6782 4.6031 10.2813 10.2813 10.2813Z" stroke-width="1"></path>
</svg>