<svg xmlns="http://www.w3.org/2000/svg" fill="none" viewBox="0 0 96 96" id="Mistral-Ai-Icon--Streamline-Svg-Logos">
  <desc>
    Mistral Ai Icon Streamline Icon: https://streamlinehq.com
  </desc>
  <path fill="#000000" d="M86.4552 5.27271H69.3643V22.3636h17.0909V5.27271Z" stroke-width="1"></path>
  <path fill="#f7d046" d="M94.9996 5.27271H77.9087V22.3636h17.0909V5.27271Z" stroke-width="1"></path>
  <path fill="#000000" d="M18.0909 5.27271H1V22.3636h17.0909V5.27271Z" stroke-width="1"></path>
  <path fill="#000000" d="M18.0909 22.3635H1v17.0909h17.0909V22.3635Z" stroke-width="1"></path>
  <path fill="#000000" d="M18.0909 39.4546H1v17.0909h17.0909V39.4546Z" stroke-width="1"></path>
  <path fill="#000000" d="M18.0909 56.5457H1v17.0909h17.0909V56.5457Z" stroke-width="1"></path>
  <path fill="#000000" d="M18.0909 73.6362H1v17.0909h17.0909V73.6362Z" stroke-width="1"></path>
  <path fill="#f7d046" d="M26.6368 5.27271H9.5459V22.3636h17.0909V5.27271Z" stroke-width="1"></path>
  <path fill="#f2a73b" d="M94.9996 22.3635H77.9087v17.0909h17.0909V22.3635Z" stroke-width="1"></path>
  <path fill="#f2a73b" d="M26.6368 22.3635H9.5459v17.0909h17.0909V22.3635Z" stroke-width="1"></path>
  <path fill="#000000" d="M69.3639 22.3635h-17.091v17.0909h17.091V22.3635Z" stroke-width="1"></path>
  <path fill="#f2a73b" d="M77.9093 22.3635H60.8184v17.0909h17.0909V22.3635Z" stroke-width="1"></path>
  <path fill="#f2a73b" d="M43.7267 22.3635h-17.091v17.0909h17.091V22.3635Z" stroke-width="1"></path>
  <path fill="#ee792f" d="M60.818 39.4546H43.7271v17.0909H60.818V39.4546Z" stroke-width="1"></path>
  <path fill="#ee792f" d="M77.9093 39.4546H60.8184v17.0909h17.0909V39.4546Z" stroke-width="1"></path>
  <path fill="#ee792f" d="M43.7267 39.4546h-17.091v17.0909h17.091V39.4546Z" stroke-width="1"></path>
  <path fill="#000000" d="M52.2726 56.5457h-17.091v17.0909h17.091V56.5457Z" stroke-width="1"></path>
  <path fill="#eb5829" d="M60.818 56.5457H43.7271v17.0909H60.818V56.5457Z" stroke-width="1"></path>
  <path fill="#ee792f" d="M94.9996 39.4546H77.9087v17.0909h17.0909V39.4546Z" stroke-width="1"></path>
  <path fill="#ee792f" d="M26.6368 39.4546H9.5459v17.0909h17.0909V39.4546Z" stroke-width="1"></path>
  <path fill="#000000" d="M86.4552 56.5457H69.3643v17.0909h17.0909V56.5457Z" stroke-width="1"></path>
  <path fill="#eb5829" d="M94.9996 56.5457H77.9087v17.0909h17.0909V56.5457Z" stroke-width="1"></path>
  <path fill="#000000" d="M86.4552 73.6362H69.3643v17.0909h17.0909V73.6362Z" stroke-width="1"></path>
  <path fill="#eb5829" d="M26.6368 56.5457H9.5459v17.0909h17.0909V56.5457Z" stroke-width="1"></path>
  <path fill="#ea3326" d="M94.9996 73.6362H77.9087v17.0909h17.0909V73.6362Z" stroke-width="1"></path>
  <path fill="#ea3326" d="M26.6368 73.6362H9.5459v17.0909h17.0909V73.6362Z" stroke-width="1"></path>
</svg>