<svg version="1.2" xmlns="http://www.w3.org/2000/svg" viewBox="0 0 1134 1134" width="1134" height="1134">
	<title>PAYU_LOGO_SQUARE_LIME-ai</title>
	<style>
		.s0 { fill: #002023 } 
		.s1 { fill: #ffffff } 
	</style>
	<g id="Layer 1">
		<path id="&lt;Path&gt;" class="s0" d="m990.2 1079.6h-846.6c-49.7 0-90.1-40.4-90.1-90.2v-846.5c0-49.8 40.4-90.1 90.1-90.1h846.6c49.8 0 90.1 40.3 90.1 90.1v846.5c0 49.8-40.3 90.2-90.1 90.2z"/>
		<g id="&lt;Group&gt;">
			<path id="&lt;Path&gt;" class="s1" d="m754.4 486.9c-13.5 0-24.4-11-24.4-24.5v-108h-9c-55.9 0-76.7 9.2-76.7 60.1v119.2q0 0.4 0 0.7v26.2c-0.1 0.9-0.1 1.7-0.1 2.6v166.5c0 20.4-3.9 36.6-12 49.1-15.3 23.5-45.4 34.2-93.7 34.3-48.3-0.1-78.5-10.8-93.7-34.2-8.1-12.6-12-28.8-12-49.2v-166.5c0-0.9-0.1-1.7-0.1-2.6v-26.2q0-0.3 0-0.7v-119.2c0-50.9-20.8-60.1-76.7-60.1h-17.6c-55.9 0-76.7 9.2-76.7 60.1v119.9 126.2 69.1c0 50.7 11.4 93.7 33.5 128.3 42.7 67 125.3 102.8 242.8 102.8q0.3 0 0.5 0 0.2 0 0.4 0c117.5 0 200.2-35.8 242.9-102.8 22.1-34.6 33.5-77.6 33.5-128.3v-69.1-126.2-47.5z"/>
			<path id="&lt;Path&gt;" class="s1" d="m997.8 312.8l-78.9-0.1c-8.6 0-15.5-6.9-15.5-15.5v-79.9c0-8.6 7-15.5 15.6-15.5h78.8c8.6 0 15.6 7 15.6 15.6v79.8c0 8.6-7 15.6-15.6 15.6z"/>
			<path id="&lt;Path&gt;" class="s1" d="m892.7 201.8h-53.5c-5.9 0-10.6-4.8-10.6-10.6v-54.2c0-5.9 4.8-10.6 10.6-10.6h53.5c5.9 0 10.6 4.7 10.6 10.6v54.2c0 5.8-4.7 10.6-10.6 10.6z"/>
			<path id="&lt;Path&gt;" class="s1" d="m878.3 312.7h-123.8c-13.5 0-24.5 10.9-24.5 24.4v17.3h8.6c55.9 0 76.7 9.2 76.7 60.1v72.4h62.9c13.5 0 24.5-10.9 24.5-24.4v-125.3c0-13.5-10.9-24.5-24.4-24.5z"/>
		</g>
	</g>
</svg>