<svg xmlns="http://www.w3.org/2000/svg" fill="none" viewBox="0 0 96 96" id="Pinecone-Icon--Streamline-Svg-Logos">
  <desc>
    Pinecone Icon Streamline Icon: https://streamlinehq.com
  </desc>
  <path fill="#201d1e" d="M41.6639 84.2421c2.9707 0 5.379 2.4082 5.379 5.3789 0 2.9708 -2.4083 5.379 -5.379 5.379 -2.9707 0 -5.3789 -2.4082 -5.3789 -5.379 0 -2.9707 2.4082 -5.3789 5.3789 -5.3789Zm29.8425 -9.8142 5.3155 1.5749 -4.2194 14.2407c-0.3687 1.2444 -1.5514 2.0663 -2.8462 1.9781l-1.3033 -0.0894 -0.0319 0.0263 -13.5413 -0.9503 0.3768 -5.5311 9.0978 0.6174 -5.9561 -8.592 4.5561 -3.1588 5.9639 8.6026 2.5881 -8.7184Zm-57.8545 -9.8446 5.5301 0.3917 -0.6477 9.0964 8.5763 -5.9637 3.1659 4.551 -8.5875 5.97 8.7654 2.5828 -1.5668 5.3179 -14.3079 -4.2153c-1.2491 -0.368 -2.0737 -1.5559 -1.9816 -2.8549l1.0538 -14.8759Zm35.7061 -7.746 9.9809 12.0501 -4.4983 3.7259 -5.94 -7.1714 -1.9257 11.026 -5.7538 -1.0058 1.9277 -11.0431 -7.9967 4.7149 -2.9648 -5.0326 13.4392 -7.9173c1.2355 -0.7279 2.8168 -0.4511 3.7315 0.6533Zm27.9244 -8.0846 4.9858 -2.7126 7.2633 13.3498c0.6363 1.1695 0.3741 2.624 -0.6305 3.4977l-1.0276 0.8879 -10.4857 9.1255 -3.7248 -4.2828 7.0495 -6.133 -10.5003 -1.8917 1.0073 -5.5858 10.4929 1.8906 -4.4299 -8.1456ZM18.484 34.7957l3.7558 4.2556 -6.9527 6.1321 10.5203 1.8367 -0.9751 5.5916 -10.5319 -1.8382 4.5238 8.1783 -4.9667 2.7475 -7.37968 -13.3402c-0.64432 -1.1647 -0.39258 -2.6208 0.60541 -3.5016L18.484 34.7957Zm35.5606 -4.3904 9.9471 12.0177 -4.4995 3.7243 -5.9386 -7.1745 -1.9258 11.0293 -5.7537 -1.0058 1.921 -11.0003 -7.966 4.6698 -2.9535 -5.0393 12.2362 -7.1742 0.0121 -0.0466 0.0539 0.007 1.1403 -0.6649c1.2354 -0.724 2.8135 -0.4456 3.7265 0.6575Zm12.8181 -5.9103 2.1755 -5.2425 14.0722 5.8397c1.2282 0.5097 1.9379 1.804 1.7072 3.1136l-0.2343 1.3027 -2.403 13.6692 -5.5899 -0.9847 1.6107 -9.1502 -9.336 5.1598 -2.7436 -4.9688 9.3539 -5.1641 -8.6127 -3.5747ZM40.0554 14.1642l0.2419 5.6708 -9.2957 0.3973 7.011 8.0121 -4.2716 3.7377 -7.0228 -8.0242 -1.6362 9.1609 -5.5873 -0.9994 2.6777 -14.9705c0.234 -1.3084 1.3447 -2.2791 2.6727 -2.3358l1.3154 -0.0588 0.0295 -0.0214 13.8654 -0.5687ZM59.0705 2.07046 68.9726 14.164l-4.5193 3.7004 -5.8771 -7.179 -1.9823 11.0147 -5.7486 -1.0345 1.9856 -11.03946 -8.0241 4.69146 -2.9469 -5.04311L55.3374 1.3991c1.2401 -0.724667 2.8231 -0.439982 3.7331 0.67136Z" stroke-width="1"></path>
</svg>