<svg width="1312" height="140" viewBox="0 0 1312 140" fill="none" xmlns="http://www.w3.org/2000/svg">
<g clip-path="url(#clip0_4804_15340)">
<g filter="url(#filter0_f_4804_15340)">
<path d="M470.749 786.439L169 516.059L1234.71 -673.289L1536.46 -402.908L470.749 786.439Z" fill="url(#paint0_linear_4804_15340)"/>
</g>
<g filter="url(#filter1_f_4804_15340)">
<path d="M-867 -367.033L-582.815 -651.219L546.408 478.003L262.222 762.189L-867 -367.033Z" fill="url(#paint1_linear_4804_15340)"/>
</g>
<rect y="-35" width="131.2" height="35" fill="white" fill-opacity="0.01"/>
<rect y="-35" width="131.2" height="35" stroke="#203435" stroke-width="0.5"/>
<rect width="131.2" height="35" fill="#02181A"/>
<rect y="35" width="131.2" height="35" fill="white" fill-opacity="0.01"/>
<rect y="35" width="131.2" height="35" stroke="#203435" stroke-width="0.5"/>
<rect y="70" width="131.2" height="35" fill="white" fill-opacity="0.01"/>
<rect y="70" width="131.2" height="35" stroke="#203435" stroke-width="0.5"/>
<rect y="105" width="131.2" height="35" fill="white" fill-opacity="0.01"/>
<rect y="105" width="131.2" height="35" stroke="#203435" stroke-width="0.5"/>
<rect y="140" width="131.2" height="35" fill="white" fill-opacity="0.01"/>
<rect y="140" width="131.2" height="35" stroke="#203435" stroke-width="0.5"/>
<rect x="131.2" y="-35" width="131.2" height="35" fill="white" fill-opacity="0.01"/>
<rect x="131.2" y="-35" width="131.2" height="35" stroke="#203435" stroke-width="0.5"/>
<rect width="131.2" height="35" transform="translate(131.2)" fill="#02181A"/>
<rect width="131.2" height="35" transform="translate(131.2 35)" fill="#02181A"/>
<rect x="131.2" y="70" width="131.2" height="35" fill="white" fill-opacity="0.01"/>
<rect x="131.2" y="70" width="131.2" height="35" stroke="#203435" stroke-width="0.5"/>
<rect x="131.2" y="105" width="131.2" height="35" fill="white" fill-opacity="0.01"/>
<rect x="131.2" y="105" width="131.2" height="35" stroke="#203435" stroke-width="0.5"/>
<rect x="131.2" y="140" width="131.2" height="35" fill="white" fill-opacity="0.01"/>
<rect x="131.2" y="140" width="131.2" height="35" stroke="#203435" stroke-width="0.5"/>
<rect x="262.4" y="-35" width="131.2" height="35" fill="white" fill-opacity="0.01"/>
<rect x="262.4" y="-35" width="131.2" height="35" stroke="#203435" stroke-width="0.5"/>
<rect width="131.2" height="35" transform="translate(262.4)" fill="#02181A"/>
<rect x="262.4" y="35" width="131.2" height="35" fill="white" fill-opacity="0.01"/>
<rect x="262.4" y="35" width="131.2" height="35" stroke="#203435" stroke-width="0.5"/>
<rect x="262.4" y="70" width="131.2" height="35" fill="white" fill-opacity="0.01"/>
<rect x="262.4" y="70" width="131.2" height="35" stroke="#203435" stroke-width="0.5"/>
<rect x="262.4" y="105" width="131.2" height="35" fill="white" fill-opacity="0.01"/>
<rect x="262.4" y="105" width="131.2" height="35" stroke="#203435" stroke-width="0.5"/>
<rect x="262.4" y="140" width="131.2" height="35" fill="white" fill-opacity="0.01"/>
<rect x="262.4" y="140" width="131.2" height="35" stroke="#203435" stroke-width="0.5"/>
<rect x="393.6" y="-35" width="131.2" height="35" fill="white" fill-opacity="0.01"/>
<rect x="393.6" y="-35" width="131.2" height="35" stroke="#203435" stroke-width="0.5"/>
<rect x="393.6" width="131.2" height="35" fill="white" fill-opacity="0.01"/>
<rect x="393.6" width="131.2" height="35" stroke="#203435" stroke-width="0.5"/>
<rect x="393.6" y="35" width="131.2" height="35" fill="white" fill-opacity="0.01"/>
<rect x="393.6" y="35" width="131.2" height="35" stroke="#203435" stroke-width="0.5"/>
<rect x="393.6" y="70" width="131.2" height="35" fill="white" fill-opacity="0.01"/>
<rect x="393.6" y="70" width="131.2" height="35" stroke="#203435" stroke-width="0.5"/>
<rect x="393.6" y="105" width="131.2" height="35" fill="white" fill-opacity="0.01"/>
<rect x="393.6" y="105" width="131.2" height="35" stroke="#203435" stroke-width="0.5"/>
<rect x="393.6" y="140" width="131.2" height="35" fill="white" fill-opacity="0.01"/>
<rect x="393.6" y="140" width="131.2" height="35" stroke="#203435" stroke-width="0.5"/>
<rect x="524.8" y="-35" width="131.2" height="35" fill="white" fill-opacity="0.01"/>
<rect x="524.8" y="-35" width="131.2" height="35" stroke="#203435" stroke-width="0.5"/>
<rect width="131.2" height="35" transform="translate(524.8)" fill="#02181A"/>
<rect width="131.2" height="35" transform="translate(524.8 35)" fill="#02181A"/>
<rect x="524.8" y="70" width="131.2" height="35" fill="white" fill-opacity="0.01"/>
<rect x="524.8" y="70" width="131.2" height="35" stroke="#203435" stroke-width="0.5"/>
<rect x="524.8" y="105" width="131.2" height="35" fill="white" fill-opacity="0.01"/>
<rect x="524.8" y="105" width="131.2" height="35" stroke="#203435" stroke-width="0.5"/>
<rect x="524.8" y="140" width="131.2" height="35" fill="white" fill-opacity="0.01"/>
<rect x="524.8" y="140" width="131.2" height="35" stroke="#203435" stroke-width="0.5"/>
<rect x="656" y="-35" width="131.2" height="35" fill="white" fill-opacity="0.01"/>
<rect x="656" y="-35" width="131.2" height="35" stroke="#203435" stroke-width="0.5"/>
<rect x="656" width="131.2" height="35" fill="white" fill-opacity="0.01"/>
<rect x="656" width="131.2" height="35" stroke="#203435" stroke-width="0.5"/>
<rect x="656" y="35" width="131.2" height="35" fill="white" fill-opacity="0.01"/>
<rect x="656" y="35" width="131.2" height="35" stroke="#203435" stroke-width="0.5"/>
<rect x="656" y="70" width="131.2" height="35" fill="white" fill-opacity="0.01"/>
<rect x="656" y="70" width="131.2" height="35" stroke="#203435" stroke-width="0.5"/>
<rect x="656" y="105" width="131.2" height="35" fill="white" fill-opacity="0.01"/>
<rect x="656" y="105" width="131.2" height="35" stroke="#203435" stroke-width="0.5"/>
<rect x="656" y="140" width="131.2" height="35" fill="white" fill-opacity="0.01"/>
<rect x="656" y="140" width="131.2" height="35" stroke="#203435" stroke-width="0.5"/>
<rect x="787.2" y="-35" width="131.2" height="35" fill="white" fill-opacity="0.01"/>
<rect x="787.2" y="-35" width="131.2" height="35" stroke="#203435" stroke-width="0.5"/>
<rect width="131.2" height="35" transform="translate(787.2)" fill="#02181A"/>
<rect x="787.2" y="35" width="131.2" height="35" fill="white" fill-opacity="0.01"/>
<rect x="787.2" y="35" width="131.2" height="35" stroke="#203435" stroke-width="0.5"/>
<rect x="787.2" y="70" width="131.2" height="35" fill="white" fill-opacity="0.01"/>
<rect x="787.2" y="70" width="131.2" height="35" stroke="#203435" stroke-width="0.5"/>
<rect x="787.2" y="105" width="131.2" height="35" fill="white" fill-opacity="0.01"/>
<rect x="787.2" y="105" width="131.2" height="35" stroke="#203435" stroke-width="0.5"/>
<rect x="787.2" y="140" width="131.2" height="35" fill="white" fill-opacity="0.01"/>
<rect x="787.2" y="140" width="131.2" height="35" stroke="#203435" stroke-width="0.5"/>
<rect x="918.4" y="-35" width="131.2" height="35" fill="white" fill-opacity="0.01"/>
<rect x="918.4" y="-35" width="131.2" height="35" stroke="#203435" stroke-width="0.5"/>
<rect width="131.2" height="35" transform="translate(918.4)" fill="#02181A"/>
<rect width="131.2" height="35" transform="translate(918.4 35)" fill="#02181A"/>
<rect x="918.4" y="70" width="131.2" height="35" fill="white" fill-opacity="0.01"/>
<rect x="918.4" y="70" width="131.2" height="35" stroke="#203435" stroke-width="0.5"/>
<rect x="918.4" y="105" width="131.2" height="35" fill="white" fill-opacity="0.01"/>
<rect x="918.4" y="105" width="131.2" height="35" stroke="#203435" stroke-width="0.5"/>
<rect x="918.4" y="140" width="131.2" height="35" fill="white" fill-opacity="0.01"/>
<rect x="918.4" y="140" width="131.2" height="35" stroke="#203435" stroke-width="0.5"/>
<rect x="1049.6" y="-35" width="131.2" height="35" fill="white" fill-opacity="0.01"/>
<rect x="1049.6" y="-35" width="131.2" height="35" stroke="#203435" stroke-width="0.5"/>
<rect x="1049.6" width="131.2" height="35" fill="white" fill-opacity="0.01"/>
<rect x="1049.6" width="131.2" height="35" stroke="#203435" stroke-width="0.5"/>
<rect x="1049.6" y="35" width="131.2" height="35" fill="white" fill-opacity="0.01"/>
<rect x="1049.6" y="35" width="131.2" height="35" stroke="#203435" stroke-width="0.5"/>
<rect x="1049.6" y="70" width="131.2" height="35" fill="white" fill-opacity="0.01"/>
<rect x="1049.6" y="70" width="131.2" height="35" stroke="#203435" stroke-width="0.5"/>
<rect x="1049.6" y="105" width="131.2" height="35" fill="white" fill-opacity="0.01"/>
<rect x="1049.6" y="105" width="131.2" height="35" stroke="#203435" stroke-width="0.5"/>
<rect x="1049.6" y="140" width="131.2" height="35" fill="white" fill-opacity="0.01"/>
<rect x="1049.6" y="140" width="131.2" height="35" stroke="#203435" stroke-width="0.5"/>
<rect x="1180.8" y="-35" width="131.2" height="35" fill="white" fill-opacity="0.01"/>
<rect x="1180.8" y="-35" width="131.2" height="35" stroke="#203435" stroke-width="0.5"/>
<rect x="1180.8" width="131.2" height="35" fill="white" fill-opacity="0.01"/>
<rect x="1180.8" width="131.2" height="35" stroke="#203435" stroke-width="0.5"/>
<rect x="1180.8" y="35" width="131.2" height="35" fill="white" fill-opacity="0.01"/>
<rect x="1180.8" y="35" width="131.2" height="35" stroke="#203435" stroke-width="0.5"/>
<rect x="1180.8" y="70" width="131.2" height="35" fill="white" fill-opacity="0.01"/>
<rect x="1180.8" y="70" width="131.2" height="35" stroke="#203435" stroke-width="0.5"/>
<rect x="1180.8" y="105" width="131.2" height="35" fill="white" fill-opacity="0.01"/>
<rect x="1180.8" y="105" width="131.2" height="35" stroke="#203435" stroke-width="0.5"/>
<rect x="1180.8" y="140" width="131.2" height="35" fill="white" fill-opacity="0.01"/>
<rect x="1180.8" y="140" width="131.2" height="35" stroke="#203435" stroke-width="0.5"/>
</g>
<defs>
<filter id="filter0_f_4804_15340" x="119" y="-723.289" width="1467.46" height="1559.73" filterUnits="userSpaceOnUse" color-interpolation-filters="sRGB">
<feFlood flood-opacity="0" result="BackgroundImageFix"/>
<feBlend mode="normal" in="SourceGraphic" in2="BackgroundImageFix" result="shape"/>
<feGaussianBlur stdDeviation="25" result="effect1_foregroundBlur_4804_15340"/>
</filter>
<filter id="filter1_f_4804_15340" x="-917" y="-701.219" width="1513.41" height="1513.41" filterUnits="userSpaceOnUse" color-interpolation-filters="sRGB">
<feFlood flood-opacity="0" result="BackgroundImageFix"/>
<feBlend mode="normal" in="SourceGraphic" in2="BackgroundImageFix" result="shape"/>
<feGaussianBlur stdDeviation="25" result="effect1_foregroundBlur_4804_15340"/>
</filter>
<linearGradient id="paint0_linear_4804_15340" x1="1003.6" y1="191.766" x2="701.855" y2="-78.6153" gradientUnits="userSpaceOnUse">
<stop stop-color="#E7F8F5"/>
<stop offset="0.2" stop-color="#0BFAEE"/>
<stop offset="0.4" stop-color="#00DF9C"/>
<stop offset="0.6" stop-color="#055D5D"/>
<stop offset="0.8" stop-color="#05393B"/>
<stop offset="1" stop-color="#052528"/>
</linearGradient>
<linearGradient id="paint1_linear_4804_15340" x1="-302.389" y1="197.578" x2="-18.2034" y2="-86.6076" gradientUnits="userSpaceOnUse">
<stop stop-color="#E7F8F5"/>
<stop offset="0.2" stop-color="#0BFAEE"/>
<stop offset="0.4" stop-color="#00DF9C"/>
<stop offset="0.6" stop-color="#055D5D"/>
<stop offset="0.8" stop-color="#05393B"/>
<stop offset="1" stop-color="#052528"/>
</linearGradient>
<clipPath id="clip0_4804_15340">
<rect width="1312" height="525" fill="white"/>
</clipPath>
</defs>
</svg>
